# xmcd
# 
# Track frame offsets:
#     150
#     13202
#     31954
#     47106
#     64208
#     87160
#     105537
#     120089
#     133141
#     144618
#     161120
#     179647
#     194199
#     208526
#     224728
#     240630
#     257207
#     274009
# 
# Disc length: 3832
# 
# Revision: 3
# Processed by: cddbd v1.5.2PL0 Copyright (c) Steve Scherf et al.
# Submitted via: fre:ac v1.0.27
# 
DISCID=1b0ef612
DTITLE=Various Artist - The Winners Vol 4 - Disc 1
DYEAR=1996
DGENRE=Country
TTITLE0=I Fell In Love - The Wheel
TTITLE1=End Of The Road - Troy Cassar - Daley
TTITLE2=The Verandah - Tania Kernaghan
TTITLE3=Big Decision - Mitchell Shadlow
TTITLE4=The Great Australian Dream - Graeme Connors
TTITLE5=Henry's Men - The Bushwackers
TTITLE6=Home Fires - The Dead Ringer Band
TTITLE7=Cattle Truck - The Bourkenbacks
TTITLE8=The Time Has Come - Carol Young
TTITLE9=Tex Loves Daisy - Brent Parlane
TTITLE10=Sin City - Anne Kirkpatrick
TTITLE11=Gympie Muster - Shot To Pieces
TTITLE12=The Wheels Of Cobb and Co. - Brian Letton
TTITLE13=Cut To The Chase - Rod Mccormack and Mick Albeck
TTITLE14=Somewhere Out There - Shanley Del
TTITLE15=Where Country Is - Lee Kernaghan
TTITLE16=You Can't Change That - Steve Gibson and Clint Beattie
TTITLE17=Fiddler Man - Audio Murphy and Slim Dusty
EXTD=YEAR: 1996
EXTT0=
EXTT1=
EXTT2=
EXTT3=
EXTT4=
EXTT5=
EXTT6=
EXTT7=
EXTT8=
EXTT9=
EXTT10=
EXTT11=
EXTT12=
EXTT13=
EXTT14=
EXTT15=
EXTT16=
EXTT17=
PLAYORDER=
